<svg width="228" height="25" viewBox="0 0 228 36" fill="none" xmlns="http://www.w3.org/2000/svg">
<path d="M4.2525 19.38V14H3.0725C1.9925 14 1.4125 13.82 0.6725 13.44L1.3325 11.56C2.0325 11.92 2.6525 12 3.7125 12H6.4925V19L4.2525 19.38ZM8.19484 12.24C16.2748 10.9 17.6948 12.5 17.6948 16.86V24H15.4548V17.42C15.4548 14.22 14.8548 13.16 8.51484 14.18L8.19484 12.24ZM21.6584 24.12V14H21.0184C20.0584 14 19.3984 13.8 18.7984 13.44L19.4584 11.56C20.1784 11.9 20.6984 12 21.7384 12H23.8984V23.76L21.6584 24.12ZM35.2934 22H36.8334L36.5134 24H25.9334L26.1934 22H33.0534V17.42C33.0534 14.22 32.4534 13.12 26.2134 14.18L25.8734 12.24C33.8534 10.9 35.2934 12.5 35.2934 16.84V22ZM39.9361 19.38V14H38.7561C37.6761 14 37.0961 13.82 36.3561 13.44L37.0161 11.56C37.7161 11.92 38.3361 12 39.3961 12H42.1761V19L39.9361 19.38ZM53.1984 18.54C55.0984 19.86 55.9384 21.68 55.1784 24H44.6584L44.9384 22H53.0784C53.0784 19.98 50.2384 18.7 45.8984 17.96V13.94C44.9984 13.92 44.3384 13.8 43.6984 13.44L44.3384 11.56C45.2984 12 45.7584 12 47.9584 12V16.54C49.3384 16.82 50.5584 17.18 51.6184 17.66C52.7584 16.62 53.0784 15.28 52.9784 13.92C51.7784 13.9 51.0784 13.8 50.2584 13.36L50.8984 11.56C51.9184 12 52.4384 12 55.0584 12C55.6184 15.42 54.6384 17.36 53.1984 18.54ZM72.4995 12H74.3595V17.84C74.3595 22.36 72.7795 23.22 64.0195 24.88L63.5195 22.98C65.2995 22.64 66.7195 22.34 67.8595 22.06C66.7395 21.22 66.0795 19.86 65.2795 13.96C64.2595 13.96 63.5195 13.86 62.7795 13.44L63.4195 11.56C64.1395 11.92 64.6395 12 65.7595 12H67.1595C67.9795 18.66 68.4395 20.54 69.7795 21.46C71.9395 20.64 72.2195 19.7 72.2195 17.76V13.96H71.9995C70.8995 13.96 70.1195 13.88 69.3595 13.44L70.0195 11.56C70.7395 11.94 71.3995 12 72.4995 12ZM82.5078 24V14H79.0878C77.5678 14 76.7278 13.92 75.8678 13.46L76.5078 11.56C77.3678 11.96 77.9678 12 79.2478 12H86.9078L86.5478 14H84.7478V24H82.5078ZM91.4205 19.38V14H90.2405C89.1605 14 88.5805 13.82 87.8405 13.44L88.5005 11.56C89.2005 11.92 89.8205 12 90.8805 12H93.6605V19L91.4205 19.38ZM98.9823 24.18L98.2623 22.34C100.902 21.62 102.582 20.44 102.582 16.92V14H95.6223V11.36C95.6223 10.38 95.5423 9.92 95.3023 9.48L97.2223 8.94C97.6223 9.46 97.7023 10.3 97.7023 11.18V12H104.822V16.92C104.822 21.46 102.402 23.28 98.9823 24.18ZM116.768 17.28C115.248 18.26 115.068 20.12 115.248 22.1H117.848V24H113.068C112.608 19.64 113.408 17.38 115.448 16.06C113.948 14.42 113.248 13.18 112.948 12.38L114.788 11.46C115.068 12.06 115.668 13.18 117.268 14.96L120.308 18.36C121.628 17.56 122.368 16.26 122.348 13.92H121.648C120.628 13.92 119.948 13.76 119.228 13.34L119.888 11.54C120.728 11.92 121.248 12 122.448 12H124.508C124.808 16.48 123.608 18.42 121.588 19.64L124.768 23L123.268 24.4L116.768 17.28ZM128.948 12H131.148V21.38C131.148 24.32 128.508 24.5 125.908 24.04L126.208 22.06C127.848 22.36 128.908 22.32 128.908 20.3V14H128.488C127.528 14 126.808 13.82 126.148 13.44L126.808 11.56C127.468 11.86 128.008 12 128.948 12ZM139.383 24V14H135.963C134.443 14 133.603 13.92 132.743 13.46L133.383 11.56C134.243 11.96 134.843 12 136.123 12H143.783L143.423 14H141.623V24H139.383ZM151.837 12C155.537 12 156.597 13.94 156.597 18C156.597 22.16 154.837 24.22 151.137 24.22C147.457 24.22 145.677 22.16 145.677 18.34C145.677 16.24 146.337 14.8 146.937 13.98C145.977 13.94 145.317 13.76 144.697 13.46L145.357 11.56C146.017 11.88 146.537 12 147.797 12H151.837ZM151.137 22.22C153.297 22.22 154.357 20.84 154.357 18C154.357 15.14 153.617 14 151.597 14H149.017C148.377 14.8 147.917 16.24 147.917 18C147.917 20.84 148.977 22.22 151.137 22.22ZM158.066 12.28C166.606 10.94 168.746 12.38 168.746 16.6V24H166.506V17.18C166.506 14.1 165.306 13.18 158.346 14.22L158.066 12.28ZM158.526 24V20.4C158.526 19.34 158.586 18.24 158.986 17.34L161.086 17.72C160.826 18.44 160.766 19.34 160.766 20.3V24H158.526Z" fill="#FCFCF8"/>
<g clip-path="url(#clip0_117_863)">
<path d="M224 17.0927L215.398 18.5861C215.402 18.6403 215.402 18.6983 215.402 18.7525C215.402 19.534 215.248 20.2807 214.972 20.9655L222.913 25.3064C224.012 24.0451 225.579 23.3139 227.209 23.2211C226.217 26.4129 224.335 29.2333 221.846 31.4038C221.295 30.0032 221.28 28.4092 221.894 26.9468L213.972 22.6136C213.102 23.635 211.89 24.3701 210.512 24.6448V33.4001H219.083C217.409 34.3867 215.563 35.1256 213.598 35.5551C212.28 35.8452 210.909 36 209.5 36C207.965 36 206.476 35.8182 205.051 35.4738C203.217 35.0366 201.492 34.3286 199.917 33.4001H208.559V24.7261C207.008 24.5481 205.634 23.8014 204.661 22.6988L196.89 26.9468C197.484 28.3589 197.488 29.8949 196.992 31.2606C194.591 29.1172 192.772 26.3587 191.795 23.2404C193.346 23.3797 194.823 24.1032 195.874 25.3064L203.626 21.0661C203.323 20.3542 203.157 19.5727 203.157 18.7525C203.157 18.6983 203.157 18.6403 203.161 18.5861L194.559 17.0927C194.039 18.7951 192.795 20.1376 191.228 20.8378C191.079 19.9132 191 18.9653 191 17.9981C191 15.402 191.563 12.9376 192.583 10.7091C193.929 11.7962 194.772 13.4212 194.823 15.1893L203.524 16.6981C203.764 16.052 204.11 15.4562 204.547 14.9339L199.028 8.28329C197.366 9.32402 195.335 9.49038 193.575 8.83267C195.469 5.72982 198.291 3.22665 201.669 1.68683C202.157 3.52069 201.744 5.5093 200.492 7.01042L206.012 13.661C206.768 13.1968 207.63 12.8834 208.559 12.7789V4.3022C206.421 4.05459 204.622 2.72757 203.74 0.889844C205.551 0.31338 207.488 0 209.5 0C211.37 0 213.177 0.270822 214.878 0.773777C214.083 2.52251 212.469 3.8302 210.512 4.22482V12.8602C211.244 13.0033 211.933 13.2819 212.547 13.661L218.067 7.01042C216.776 5.459 216.378 3.39301 216.937 1.5166C220.437 3.00999 223.37 5.53251 225.335 8.68952C223.496 9.50586 221.307 9.39366 219.531 8.28329L214.012 14.9339C214.449 15.4562 214.795 16.052 215.035 16.6981L223.74 15.1893C223.791 13.2858 224.768 11.5409 226.303 10.4615C227.394 12.7519 228 15.3053 228 17.9981C228 19.0233 227.913 20.0254 227.744 21.0042C225.984 20.3658 224.567 18.9421 224 17.0927Z" fill="#FCFCF8"/>
</g>
<defs>
<clipPath id="clip0_117_863">
<rect width="37" height="36" fill="white" transform="translate(191)"/>
</clipPath>
</defs>
</svg>
