<svg width="37" height="36" viewBox="0 0 37 36" fill="none" xmlns="http://www.w3.org/2000/svg">
<path d="M33 17.0927L24.3976 18.5861C24.4016 18.6403 24.4016 18.6983 24.4016 18.7525C24.4016 19.534 24.248 20.2807 23.9724 20.9655L31.9134 25.3064C33.0118 24.0451 34.5787 23.3139 36.2087 23.2211C35.2165 26.4129 33.3346 29.2333 30.8465 31.4038C30.2953 30.0032 30.2795 28.4092 30.8937 26.9468L22.9724 22.6136C22.1024 23.635 20.8898 24.3701 19.5118 24.6448V33.4001H28.0827C26.4094 34.3867 24.563 35.1256 22.5984 35.5551C21.2795 35.8452 19.9094 36 18.5 36C16.9646 36 15.4764 35.8182 14.0512 35.4738C12.2165 35.0366 10.4921 34.3286 8.91732 33.4001H17.5591V24.7261C16.0079 24.5481 14.6339 23.8014 13.6614 22.6988L5.88976 26.9468C6.48425 28.3589 6.48819 29.8949 5.99213 31.2606C3.59055 29.1172 1.77165 26.3587 0.795276 23.2404C2.34646 23.3797 3.82283 24.1032 4.87402 25.3064L12.626 21.0661C12.3228 20.3542 12.1575 19.5727 12.1575 18.7525C12.1575 18.6983 12.1575 18.6403 12.1614 18.5861L3.55906 17.0927C3.03937 18.7951 1.79528 20.1376 0.228346 20.8378C0.0787401 19.9132 0 18.9653 0 17.9981C0 15.402 0.562992 12.9376 1.58268 10.7091C2.92913 11.7962 3.77165 13.4212 3.82283 15.1893L12.5236 16.6981C12.7638 16.052 13.1102 15.4562 13.5472 14.9339L8.02756 8.28329C6.36614 9.32402 4.33465 9.49038 2.5748 8.83267C4.4685 5.72982 7.29134 3.22665 10.6693 1.68683C11.1575 3.52069 10.7441 5.5093 9.49213 7.01042L15.0118 13.661C15.7677 13.1968 16.6299 12.8834 17.5591 12.7789V4.3022C15.4213 4.05459 13.622 2.72757 12.7402 0.889844C14.5512 0.31338 16.4882 0 18.5 0C20.3701 0 22.1772 0.270822 23.878 0.773777C23.0827 2.52251 21.4685 3.8302 19.5118 4.22482V12.8602C20.2441 13.0033 20.9331 13.2819 21.5472 13.661L27.0669 7.01042C25.7756 5.459 25.378 3.39301 25.937 1.5166C29.437 3.00999 32.3701 5.53251 34.3346 8.68952C32.4961 9.50586 30.3071 9.39366 28.5315 8.28329L23.0118 14.9339C23.4488 15.4562 23.7953 16.052 24.0354 16.6981L32.7402 15.1893C32.7913 13.2858 33.7677 11.5409 35.3031 10.4615C36.3937 12.7519 37 15.3053 37 17.9981C37 19.0233 36.9134 20.0254 36.7441 21.0042C34.9843 20.3658 33.5669 18.9421 33 17.0927Z" fill="#0099E2"/>
</svg>
